<?xml version="1.0" encoding="UTF-8" standalone="no"?><!DOCTYPE svg PUBLIC "-//W3C//DTD SVG 1.1//EN" "http://www.w3.org/Graphics/SVG/1.1/DTD/svg11.dtd"><svg width="100%" height="100%" viewBox="0 0 150 80" version="1.1" xmlns="http://www.w3.org/2000/svg" xmlns:xlink="http://www.w3.org/1999/xlink" xml:space="preserve" xmlns:serif="http://www.serif.com/" style="fill-rule:evenodd;clip-rule:evenodd;stroke-linejoin:round;stroke-miterlimit:2;"><path d="M35.339,11.289c-2.391,-2.379 -6.258,-2.372 -8.64,0.018l-24.03,24.129c-0.154,0.154 -0.269,0.328 -0.402,0.494c-0.124,0.152 -0.263,0.295 -0.37,0.456c-0.125,0.19 -0.215,0.398 -0.317,0.598c-0.079,0.156 -0.179,0.302 -0.243,0.463c-0.086,0.211 -0.133,0.431 -0.194,0.649c-0.045,0.161 -0.11,0.318 -0.141,0.482c-0.042,0.22 -0.047,0.444 -0.067,0.667c-0.012,0.169 -0.045,0.333 -0.045,0.501c0,0.216 0.037,0.431 0.059,0.646c0.02,0.174 0.018,0.349 0.051,0.522c0.04,0.206 0.117,0.403 0.178,0.605c0.054,0.177 0.087,0.357 0.157,0.528c0.082,0.204 0.204,0.396 0.309,0.591c0.084,0.157 0.148,0.322 0.25,0.472c0.134,0.202 0.307,0.385 0.468,0.574c0.104,0.124 0.188,0.258 0.305,0.377l0.014,0.014c-0,0.002 0.002,0.004 0.003,0.005c0.002,0.002 0.002,0.002 0.004,0.004l24.011,24.101c1.194,1.199 2.761,1.798 4.329,1.798c1.56,0 3.119,-0.593 4.311,-1.782c2.392,-2.379 2.399,-6.249 0.018,-8.639l-19.736,-19.814l19.736,-19.82c2.381,-2.389 2.372,-6.258 -0.018,-8.639Z" style="fill:#ff3e00;fill-rule:nonzero;"/><path d="M146.336,42.665c0.112,-0.206 0.24,-0.407 0.327,-0.623c0.064,-0.157 0.096,-0.323 0.145,-0.484c0.066,-0.214 0.148,-0.426 0.19,-0.645c0.037,-0.182 0.037,-0.369 0.052,-0.552c0.023,-0.204 0.058,-0.407 0.058,-0.615c0,-0.207 -0.037,-0.41 -0.058,-0.616c-0.019,-0.183 -0.017,-0.366 -0.052,-0.548c-0.044,-0.227 -0.126,-0.445 -0.195,-0.667c-0.049,-0.153 -0.079,-0.312 -0.14,-0.464c-0.094,-0.234 -0.229,-0.454 -0.354,-0.677c-0.07,-0.128 -0.123,-0.262 -0.203,-0.386c-0.141,-0.215 -0.325,-0.409 -0.496,-0.609c-0.097,-0.112 -0.173,-0.238 -0.279,-0.344l-0.014,-0.014c-0.002,-0 -0.002,-0.002 -0.003,-0.004c-0.002,0 -0.004,-0.001 -0.004,-0.003l-24.011,-24.11c-2.379,-2.392 -6.249,-2.399 -8.639,-0.018c-2.391,2.381 -2.398,6.25 -0.017,8.641l19.737,19.819l-19.737,19.815c-2.381,2.389 -2.374,6.258 0.017,8.639c1.193,1.188 2.752,1.782 4.312,1.782c1.568,-0 3.135,-0.601 4.327,-1.798l24.032,-24.126c0.134,-0.134 0.234,-0.29 0.353,-0.433c0.143,-0.173 0.302,-0.335 0.42,-0.518c0.093,-0.142 0.152,-0.295 0.232,-0.442Z" style="fill:#ff3e00;fill-rule:nonzero;"/><g><path d="M100.141,13.817c-6.512,-9.381 -19.477,-12.129 -28.798,-6.214l-16.43,10.515c-4.481,2.808 -7.588,7.409 -8.484,12.607c-0.777,4.361 -0.119,8.842 1.972,12.726c-1.434,2.15 -2.39,4.54 -2.808,7.05c-0.956,5.317 0.298,10.814 3.405,15.175c6.572,9.38 19.477,12.129 28.798,6.214l16.43,-10.456c4.481,-2.808 7.588,-7.408 8.484,-12.606c0.777,-4.362 0.119,-8.843 -1.972,-12.726c1.434,-2.151 2.39,-4.541 2.808,-7.05c1.016,-5.377 -0.239,-10.874 -3.405,-15.235" style="fill:#ff3e00;fill-rule:nonzero;"/><path d="M69.73,66.572c-5.317,1.375 -10.874,-0.717 -13.98,-5.198c-1.912,-2.628 -2.629,-5.914 -2.092,-9.141c0.12,-0.537 0.239,-1.015 0.359,-1.553l0.299,-0.956l0.836,0.597c1.972,1.434 4.123,2.51 6.453,3.227l0.597,0.179l-0.06,0.597c-0.059,0.837 0.18,1.733 0.658,2.45c0.955,1.374 2.628,2.031 4.242,1.613c0.358,-0.119 0.716,-0.239 1.015,-0.418l16.371,-10.456c0.836,-0.537 1.374,-1.314 1.553,-2.27c0.179,-0.956 -0.06,-1.972 -0.597,-2.748c-0.956,-1.374 -2.629,-1.972 -4.242,-1.554c-0.359,0.12 -0.717,0.239 -1.016,0.419l-6.273,4.003c-1.016,0.657 -2.151,1.135 -3.346,1.433c-5.318,1.375 -10.874,-0.717 -13.981,-5.197c-1.852,-2.629 -2.629,-5.915 -2.031,-9.142c0.538,-3.106 2.449,-5.915 5.138,-7.587l16.43,-10.456c1.016,-0.657 2.151,-1.135 3.346,-1.494c5.317,-1.374 10.874,0.717 13.981,5.198c1.911,2.629 2.628,5.915 2.091,9.141c-0.12,0.538 -0.239,1.016 -0.419,1.554l-0.298,0.956l-0.837,-0.598c-1.971,-1.434 -4.122,-2.509 -6.452,-3.226l-0.598,-0.179l0.06,-0.598c0.06,-0.836 -0.179,-1.732 -0.657,-2.449c-0.956,-1.374 -2.629,-1.972 -4.242,-1.554c-0.359,0.12 -0.717,0.239 -1.016,0.419l-16.37,10.455c-0.837,0.538 -1.374,1.315 -1.554,2.27c-0.179,0.956 0.06,1.972 0.598,2.749c0.956,1.374 2.629,1.971 4.242,1.553c0.358,-0.119 0.717,-0.239 1.015,-0.418l6.274,-4.003c1.015,-0.657 2.151,-1.135 3.346,-1.494c5.317,-1.374 10.873,0.717 13.98,5.198c1.912,2.629 2.629,5.915 2.091,9.141c-0.538,3.107 -2.449,5.915 -5.138,7.588l-16.43,10.456c-1.016,0.657 -2.151,1.135 -3.346,1.493" style="fill:#fff;fill-rule:nonzero;"/></g></svg>