<?xml version="1.0" encoding="utf-8"?>
<!-- Generator: Adobe Illustrator 26.0.1, SVG Export Plug-In . SVG Version: 6.00 Build 0)  -->
<svg version="1.1" id="Layer_1" xmlns:serif="http://www.serif.com/"
	 xmlns="http://www.w3.org/2000/svg" xmlns:xlink="http://www.w3.org/1999/xlink" x="0px" y="0px" viewBox="0 0 1496.2 356.6"
	 style="enable-background:new 0 0 1496.2 356.6;" xml:space="preserve">
<style type="text/css">
	.st0{fill:#FF3E00;}
	.st1{fill:#FFFFFF;}
</style>
<g>
	<path class="st0" d="M140.6,72.2c-9.8-9.7-25.5-9.7-35.3,0.1l-98,98.4c-0.6,0.6-1.1,1.3-1.6,2c-0.5,0.6-1.1,1.2-1.5,1.9
		c-0.5,0.8-0.9,1.6-1.3,2.4c-0.3,0.6-0.7,1.2-1,1.9c-0.4,0.9-0.5,1.8-0.8,2.6c-0.2,0.7-0.4,1.3-0.6,2c-0.2,0.9-0.2,1.8-0.3,2.7
		c0,0.7-0.2,1.4-0.2,2c0,0.9,0.2,1.8,0.2,2.6c0.1,0.7,0.1,1.4,0.2,2.1c0.2,0.8,0.5,1.6,0.7,2.5c0.2,0.7,0.4,1.5,0.6,2.2
		c0.3,0.8,0.8,1.6,1.3,2.4c0.3,0.6,0.6,1.3,1,1.9c0.5,0.8,1.3,1.6,1.9,2.3c0.4,0.5,0.8,1.1,1.2,1.5l0.1,0.1c0,0,0,0,0,0c0,0,0,0,0,0
		l98,98.3c4.9,4.9,11.3,7.3,17.7,7.3c6.4,0,12.7-2.4,17.6-7.3c9.8-9.7,9.8-25.5,0.1-35.2l-80.5-80.8l80.5-80.9
		C150.3,97.7,150.3,81.9,140.6,72.2z"/>
	<path class="st0" d="M1493,200.2c0.5-0.8,1-1.7,1.3-2.5c0.3-0.6,0.4-1.3,0.6-2c0.3-0.9,0.6-1.7,0.8-2.6c0.2-0.7,0.2-1.5,0.2-2.3
		c0.1-0.8,0.2-1.7,0.2-2.5c0-0.8-0.2-1.7-0.2-2.5c-0.1-0.7-0.1-1.5-0.2-2.2c-0.2-0.9-0.5-1.8-0.8-2.7c-0.2-0.6-0.3-1.3-0.6-1.9
		c-0.4-1-0.9-1.9-1.4-2.8c-0.3-0.5-0.5-1.1-0.8-1.6c-0.6-0.9-1.3-1.7-2-2.5c-0.4-0.5-0.7-1-1.1-1.4l-0.1-0.1c0,0,0,0,0,0
		c0,0,0,0,0,0l-98-98.4c-9.7-9.8-25.5-9.8-35.2-0.1c-9.8,9.7-9.8,25.5-0.1,35.3l80.5,80.9l-80.5,80.8c-9.7,9.7-9.7,25.5,0.1,35.2
		c4.9,4.8,11.2,7.3,17.6,7.3c6.4,0,12.8-2.5,17.7-7.3l98.1-98.4c0.5-0.5,1-1.2,1.4-1.8c0.6-0.7,1.2-1.4,1.7-2.1
		C1492.5,201.4,1492.7,200.8,1493,200.2L1493,200.2z"/>
	<g>
		<path class="st0" d="M408.9,82.5C382.3,44.2,329.4,33,291.4,57.1l-67,42.9c-18.3,11.5-31,30.2-34.6,51.4
			c-3.2,17.8-0.5,36.1,8,51.9c-5.9,8.8-9.8,18.5-11.5,28.8c-3.9,21.7,1.2,44.1,13.9,61.9c26.8,38.3,79.5,49.5,117.5,25.4l67-42.7
			c18.3-11.5,31-30.2,34.6-51.4c3.2-17.8,0.5-36.1-8-51.9c5.9-8.8,9.8-18.5,11.5-28.8C426.9,122.7,421.8,100.3,408.9,82.5"/>
		<path class="st1" d="M284.8,297.7c-21.7,5.6-44.4-2.9-57-21.2c-7.8-10.7-10.7-24.1-8.5-37.3c0.5-2.2,1-4.1,1.5-6.3l1.2-3.9
			l3.4,2.4c8,5.9,16.8,10.2,26.3,13.2l2.4,0.7l-0.2,2.4c-0.2,3.4,0.7,7.1,2.7,10c3.9,5.6,10.7,8.3,17.3,6.6c1.5-0.5,2.9-1,4.1-1.7
			l66.8-42.7c3.4-2.2,5.6-5.4,6.3-9.3c0.7-3.9-0.2-8-2.4-11.2c-3.9-5.6-10.7-8-17.3-6.3c-1.5,0.5-2.9,1-4.1,1.7l-25.6,16.3
			c-4.1,2.7-8.8,4.6-13.7,5.8c-21.7,5.6-44.4-2.9-57-21.2c-7.6-10.7-10.7-24.1-8.3-37.3c2.2-12.7,10-24.1,21-31l67-42.7
			c4.1-2.7,8.8-4.6,13.7-6.1c21.7-5.6,44.4,2.9,57,21.2c7.8,10.7,10.7,24.1,8.5,37.3c-0.5,2.2-1,4.1-1.7,6.3l-1.2,3.9l-3.4-2.4
			c-8-5.9-16.8-10.2-26.3-13.2l-2.4-0.7l0.2-2.4c0.2-3.4-0.7-7.1-2.7-10c-3.9-5.6-10.7-8-17.3-6.3c-1.5,0.5-2.9,1-4.1,1.7
			l-66.8,42.7c-3.4,2.2-5.6,5.4-6.3,9.3c-0.7,3.9,0.2,8,2.4,11.2c3.9,5.6,10.7,8,17.3,6.3c1.5-0.5,2.9-1,4.1-1.7l25.6-16.3
			c4.1-2.7,8.8-4.6,13.7-6.1c21.7-5.6,44.4,2.9,57,21.2c7.8,10.7,10.7,24.1,8.5,37.3c-2.2,12.7-10,24.1-21,31l-67,42.7
			C294.3,294.3,289.7,296.3,284.8,297.7"/>
	</g>
	<g>
		<path class="st0" d="M477,200.5c-4.5,0-8.2-1.5-11.2-4.6c-3-3.1-4.5-6.8-4.5-11.2c0-4.6,1.5-8.4,4.5-11.4c3-2.9,6.7-4.4,11.2-4.4
			h65.4c4.3,0,7.9,1.5,10.9,4.4c3,3,4.5,6.7,4.5,11.4c0,4.4-1.5,8.2-4.5,11.2c-3,3.1-6.6,4.6-10.9,4.6H477z"/>
		<path class="st0" d="M615.7,271.9c-6.3,0-11.2-1.7-14.6-5.2c-3.4-3.5-5.1-8.5-5.1-15V132.3c0-6.5,1.6-11.5,4.9-14.9
			c3.3-3.4,7.9-5.1,13.8-5.1c5.9,0,10.5,1.7,13.8,5.1c3.3,3.4,4.9,8.3,4.9,14.9v19.9h-3.1c2.9-12.6,8.5-22.2,16.9-28.8
			c8.4-6.5,19.5-10.4,33.5-11.7c4.3-0.4,7.7,0.7,10.3,3.3c2.6,2.6,4,6.7,4.5,12.2c0.4,5.3-0.8,9.5-3.5,12.8
			c-2.8,3.3-6.9,5.2-12.4,5.8l-6.8,0.6c-12.5,1.3-21.9,5.2-28.2,11.9c-6.3,6.6-9.5,16-9.5,28v65.4c0,6.5-1.6,11.5-4.9,15
			C626.9,270.2,622.1,271.9,615.7,271.9z"/>
		<path class="st0" d="M788,272.6c-17,0-31.6-3.3-43.9-9.8c-12.3-6.5-21.8-15.8-28.4-27.8c-6.7-12-10-26.2-10-42.7
			c0-16,3.2-30,9.7-42c6.4-12,15.4-21.4,26.7-28.3c11.4-6.8,24.3-10.3,38.8-10.3c10.6,0,20.2,1.8,28.7,5.4
			c8.5,3.6,15.8,8.7,21.8,15.5c6,6.7,10.6,14.9,13.8,24.5c3.2,9.6,4.8,20.4,4.8,32.4c0,3.8-1.3,6.7-3.8,8.7c-2.6,2-6.2,3-10.9,3
			h-98.6v-22.8H823l-4.9,4.7c0-9.7-1.4-17.8-4.1-24.3c-2.8-6.5-6.8-11.5-12-15c-5.2-3.5-11.7-5.2-19.5-5.2c-8.6,0-15.9,2.1-22,6.2
			c-6,4.1-10.6,9.9-13.8,17.4c-3.2,7.5-4.8,16.4-4.8,26.7v2.2c0,17.3,3.9,30.2,11.8,38.7c7.9,8.5,19.5,12.8,34.8,12.8
			c5.3,0,11.3-0.7,18-2.1c6.6-1.4,12.9-3.7,18.9-7.1c4.3-2.5,8.1-3.6,11.4-3.3c3.3,0.3,5.9,1.5,7.8,3.6c1.9,2.1,3.1,4.7,3.5,7.7
			c0.4,3.1-0.2,6.2-1.7,9.3s-4.1,5.9-7.8,8.2c-7.2,4.6-15.4,8.1-24.7,10.3C804.6,271.5,796,272.6,788,272.6z"/>
		<path class="st0" d="M948.6,272.6c-13.3,0-24.4-2.3-33.3-7c-8.9-4.6-15.5-11.4-19.8-20.4c-4.3-9-6.4-20.1-6.4-33.3v-67.3h-16
			c-4.9,0-8.7-1.3-11.4-4c-2.7-2.6-4-6.3-4-10.9c0-4.8,1.3-8.5,4-11.1c2.7-2.5,6.4-3.8,11.4-3.8h16V86.1c0-6.5,1.7-11.5,5.1-14.9
			c3.4-3.4,8.1-5.1,14.3-5.1s10.8,1.7,14.1,5.1c3.3,3.4,4.9,8.3,4.9,14.9v28.8h32.5c4.9,0,8.7,1.3,11.4,3.8c2.7,2.5,4,6.2,4,11.1
			c0,4.6-1.3,8.3-4,10.9c-2.7,2.6-6.4,4-11.4,4h-32.5v65.1c0,10.1,2.1,17.7,6.4,22.8c4.3,5.1,11.3,7.6,20.9,7.6
			c3.5,0,6.5-0.3,9.2-0.9c2.7-0.6,5-1.1,7.1-1.3c2.5-0.2,4.5,0.6,6.1,2.4c1.6,1.8,2.5,5.4,2.5,10.9c0,4.2-0.7,8-2,11.2
			c-1.3,3.3-3.7,5.5-7.2,6.8c-2.7,0.8-6.1,1.6-10.4,2.4C955.6,272.2,951.8,272.6,948.6,272.6z"/>
		<path class="st0" d="M1047.1,272.6c-10.9,0-20.5-2.2-29-6.5c-8.5-4.3-15.2-10.2-20-17.5c-4.8-7.4-7.2-15.7-7.2-25
			c0-11.4,2.9-20.4,8.6-27c5.7-6.6,15-11.4,27.9-14.4c12.9-2.9,30.2-4.4,51.9-4.4h15.4v22.8h-15c-12.7,0-22.8,0.6-30.4,1.9
			c-7.6,1.3-12.9,3.4-16.1,6.5c-3.2,3.1-4.8,7.3-4.8,12.8c0,7,2.4,12.6,7.1,17.1c4.7,4.4,11.3,6.6,19.6,6.6c6.8,0,12.7-1.6,18-4.9
			c5.2-3.3,9.4-7.7,12.4-13.4s4.6-12.2,4.6-19.6v-36.3c0-10.5-2.3-18.1-6.8-22.8c-4.5-4.6-12.1-7-22.7-7c-5.9,0-12.3,0.7-19.2,2.2
			c-6.9,1.5-14.1,4-21.6,7.6c-3.9,1.9-7.3,2.4-10.3,1.6c-3-0.8-5.3-2.6-6.9-5.2c-1.6-2.6-2.5-5.5-2.5-8.7s0.8-6.3,2.5-9.3
			c1.6-3.1,4.4-5.3,8.3-6.8c9.4-4,18.5-6.8,27.2-8.5c8.7-1.7,16.6-2.5,23.8-2.5c14.7,0,26.9,2.3,36.4,7c9.5,4.6,16.6,11.6,21.3,21
			c4.7,9.4,7.1,21.4,7.1,36.2v75.8c0,6.5-1.5,11.5-4.6,15c-3.1,3.5-7.5,5.2-13.2,5.2c-5.7,0-10.2-1.7-13.4-5.2
			c-3.2-3.5-4.8-8.5-4.8-15v-15.2h2.5c-1.4,7.4-4.3,13.7-8.4,19.1c-4.2,5.4-9.5,9.5-15.8,12.5
			C1062.6,271.1,1055.3,272.6,1047.1,272.6z"/>
		<path class="st0" d="M1235.6,329.4c-11.1,0-21.8-1.1-32.1-3.2c-10.3-2.1-19.7-5.4-28.1-9.8c-3.9-2.1-6.5-4.6-7.8-7.6
			c-1.3-3-1.7-6-1.2-9c0.5-3.1,1.7-5.7,3.7-8.1c1.9-2.3,4.3-3.9,7.2-4.7c2.9-0.8,5.8-0.4,8.9,1.3c9,4.6,17.5,7.6,25.6,9
			c8.1,1.4,15,2.1,20.7,2.1c13.7,0,24-3.4,30.9-10.3c6.9-6.8,10.3-17,10.3-30.5v-28.4h2.8c-3.1,10.7-9.5,19.3-19.2,25.8
			c-9.7,6.4-20.7,9.6-33,9.6c-13.5,0-25.3-3.2-35.3-9.6c-10-6.4-17.8-15.4-23.3-27c-5.5-11.6-8.3-25.1-8.3-40.5
			c0-11.6,1.6-22.1,4.8-31.4c3.2-9.4,7.7-17.4,13.5-24.2c5.8-6.7,12.9-12,21.2-15.6c8.3-3.7,17.4-5.5,27.5-5.5
			c12.7,0,23.8,3.2,33.3,9.6c9.5,6.4,15.7,14.9,18.6,25.4l-3.1,7.9v-22.4c0-6.5,1.7-11.5,5.1-14.9c3.4-3.4,8-5.1,14-5.1
			c6.1,0,10.8,1.7,14.1,5.1c3.3,3.4,4.9,8.3,4.9,14.9v121.7c0,25.1-6.4,43.9-19.3,56.6C1278.9,323.1,1260.2,329.4,1235.6,329.4z
			 M1234.7,235.6c8,0,14.8-1.9,20.6-5.7c5.7-3.8,10.2-9.2,13.4-16.3c3.2-7.1,4.8-15.4,4.8-25.1c0-14.5-3.5-26-10.4-34.3
			c-7-8.3-16.4-12.5-28.2-12.5c-8,0-14.8,1.9-20.6,5.7c-5.7,3.8-10.2,9.2-13.4,16.1c-3.2,7-4.8,15.3-4.8,25c0,14.5,3.5,26,10.4,34.4
			C1213.4,231.4,1222.8,235.6,1234.7,235.6z"/>
	</g>
</g>
</svg>
